#N canvas 348 77 860 493 10;
#X obj 15 66 dsp;
#X floatatom 15 88 5 0 0 0 - - -, f 5;
#X msg 134 58 analyze baritono.aif;
#X obj 134 350 dac~ 1 2;
#X obj 199 148 readsf~;
#X obj 152 111 bng 15 250 50 0 empty empty empty 17 7 0 10 -262144
-1 -1;
#X msg 208 126 start;
#X obj 273 148 t b b;
#X obj 273 126 bng 15 250 50 0 empty empty empty 17 7 0 10 -262144
-1 -1;
#X text 294 126 start loop;
#X msg 74 136 mute \$1;
#X obj 74 112 tgl 15 0 empty empty empty 17 7 0 10 -262144 -1 -1 0
1;
#X msg 4 136 nosound \$1;
#X obj 4 115 tgl 15 0 empty empty empty 17 7 0 10 -262144 -1 -1 0 1
;
#X text 346 272 mute funziona a dsp gia' acceso;
#X text 345 283 nosound deve essere inizializzato a dsp spento \, altrimenti
bisogna usare mute. possiamo cambiare questa cosa ovviamente ma adesso
e' cosi'...;
#X obj 195 220 pack f f;
#X text 237 181 ho sostituito choose con la lista;
#X obj 194 179 tgl 15 0 empty empty empty 17 7 0 10 -262144 -1 -1 0
1;
#X obj 213 180 tgl 15 0 empty empty empty 17 7 0 10 -262144 -1 -1 0
1;
#X obj 346 231 *~;
#X obj 364 210 hsl 128 15 0 1 0 0 empty empty empty -2 -8 0 10 -262144
-1 -1 0 1;
#X floatatom 173 308 5 0 0 0 - - -, f 5;
#X msg 19 182 norandom \$1;
#X obj 19 160 tgl 15 0 empty empty empty 17 7 0 10 -262144 -1 -1 0
1;
#X msg 199 105 open baritono.aif;
#X msg 314 148 stop;
#X msg 149 78 analyze tot.aiff;
#X obj 213 200 t b f;
#X msg 259 246 envelope \$1;
#X floatatom 259 227 5 0 0 0 - - -, f 5;
#X obj 213 331 unpack f f f f;
#X floatatom 213 353 5 0 0 0 - - -, f 5;
#X msg 389 132 threshold \$1;
#X floatatom 389 73 5 0 0 0 - - -, f 5;
#X floatatom 389 114 5 0 0 0 - - -, f 5;
#X floatatom 293 303 5 0 0 0 - - -, f 5;
#X obj 134 276 path~ 16 -out 1 -virtual 64;
#X msg 421 11 1;
#X msg 388 11 0;
#X msg 517 158 hopsize 100;
#X msg 525 10 50;
#X msg 517 178 hopsize 100 1000;
#X msg 517 199 hopsize 100 200 300;
#X msg 490 9 25;
#X msg 454 11 10;
#X text 479 229 hopsize e amp funzionano con 1 argomento tutti i valori
fissati a quell'argomento \, 2 argomenti random e da tre fa la lista
;
#X obj 389 92 / 100;
#X text 432 73 threshold si spegne quando e' zero;
#X text 431 112 threshold prende valori (0 \, 1);
#X floatatom 253 310 5 0 0 0 - - -, f 5;
#X connect 0 0 1 0;
#X connect 2 0 37 0;
#X connect 4 0 20 0;
#X connect 4 0 37 0;
#X connect 4 1 7 0;
#X connect 5 0 37 0;
#X connect 6 0 4 0;
#X connect 7 0 6 0;
#X connect 7 1 25 0;
#X connect 8 0 7 0;
#X connect 10 0 37 0;
#X connect 11 0 10 0;
#X connect 12 0 37 0;
#X connect 13 0 12 0;
#X connect 16 0 37 0;
#X connect 18 0 16 0;
#X connect 19 0 28 0;
#X connect 20 0 3 1;
#X connect 21 0 20 1;
#X connect 23 0 37 0;
#X connect 24 0 23 0;
#X connect 25 0 4 0;
#X connect 26 0 4 0;
#X connect 27 0 37 0;
#X connect 28 0 16 0;
#X connect 28 1 16 1;
#X connect 29 0 37 0;
#X connect 30 0 29 0;
#X connect 31 0 32 0;
#X connect 33 0 37 0;
#X connect 34 0 47 0;
#X connect 35 0 33 0;
#X connect 37 0 3 0;
#X connect 37 1 22 0;
#X connect 37 2 31 0;
#X connect 37 3 50 0;
#X connect 37 4 36 0;
#X connect 38 0 34 0;
#X connect 39 0 34 0;
#X connect 40 0 37 0;
#X connect 41 0 34 0;
#X connect 42 0 37 0;
#X connect 43 0 37 0;
#X connect 44 0 34 0;
#X connect 45 0 34 0;
#X connect 47 0 35 0;
